<svg width="301" height="402" viewBox="0 0 301 402" fill="none" xmlns="http://www.w3.org/2000/svg">
<path opacity="0.1" d="M275.644 211.093C265.529 215.66 257.483 217.559 257.483 217.559L251.813 239.104C256.015 247.14 260.434 254.048 262.206 264.954C274.422 252.606 278.565 230.752 275.644 211.093L275.644 211.093ZM250.023 279.73C250.023 279.73 250.707 270.401 245.718 260.185L229.167 256.168C229.167 256.168 202.025 268.789 188.386 265.602C188.386 265.602 192.217 281.098 194.099 289.162C201.957 289.565 216.579 287.358 223.455 282.792C223.455 282.792 224.006 294.672 219.888 307.421C228.407 305.231 241.641 296.627 250.023 279.731L250.023 279.73ZM239.243 235.186L244.958 213.736C244.958 213.736 235.95 208.035 227.589 197.299C205.692 194.754 174.651 208.566 174.651 208.566C174.651 208.566 178.997 226.804 183.821 246.521C199.791 253.22 229.679 239.366 239.245 235.186L239.243 235.186ZM271.502 339.525L261.866 321.272C247.409 359.756 218.55 387.988 175.789 401.614L175.923 378.803C139.106 392.302 82.1572 392.197 43.2352 354.798C56.4612 328.134 69.1479 300.926 67.5055 263.836C31.9978 295.211 5.61572 304.163 5.61572 304.163C-3.98115 271.635 12.5777 215.974 22.099 200.834L-8.63425 201.795C-3.58578 182.954 21.0459 146.713 47.2334 129.664L30.2186 122.134L30.2009 122.13C48.7062 101.337 72.2686 85.4535 98.4777 75.8037L98.5132 75.7944C89.1674 84.2049 82.3374 109.311 99.1634 124.067C94.6996 107.8 98.3649 90.1574 109.376 83.4613C120.407 76.6874 134.037 83.6775 141.39 93.1911C140.744 84.6066 135.333 72.576 123.445 68.6729L123.428 68.6682C149.282 63.3461 176.882 63.8489 204.262 71.1852C209.377 72.5557 214.417 74.1398 219.287 75.9121C226.412 81.1591 235.167 95.2207 238.794 103.486C238.794 103.486 241.326 95.5693 239.35 84.6592C267.113 99.6419 278.108 115.188 282.519 122.445C280.388 135.259 282.217 143.776 284.105 156.999C277.307 143.946 257.703 120.569 247.264 113.432C247.264 113.432 243.421 124.002 238.064 128.14C219.434 105.859 209.255 98.7751 209.255 98.7751C183.122 95.5447 164.378 100.669 153.577 105.753L159.543 114.177C143.14 114.655 129.874 124.719 129.874 124.719C129.923 124.983 142.88 130.457 142.88 130.457C142.88 130.457 137.38 145.489 154.58 160.445C169.323 173.257 196.447 169.527 216.996 184.646C206.455 163.63 198.05 153.25 198.05 153.25C198.05 153.25 192.382 150.43 188.154 149.33C182.871 147.948 174.736 146.853 166.997 141.275C163.295 138.597 159.227 134.536 156.072 131.221C156.072 131.221 169.51 123.457 185.624 125.271C185.624 125.271 198.567 132.844 207.491 143.781C216.713 138.775 224.326 141.048 224.326 141.048C224.326 141.048 214.866 145.923 214.923 154.918C223.397 167.469 231.705 184.415 231.705 184.415C245.66 181.178 271.808 189.786 275.606 197.413C271.041 186.827 263.036 176.872 257.001 168.579C256.935 165.056 251.582 151.406 250.443 149.966C250.443 149.966 257.792 154.505 263.263 162.663C266.073 160.362 270.685 158.494 276.253 158.617C280.447 164.447 279.6 171.447 279.155 172.529C275.987 174.701 273.28 175.211 273.28 175.211L282.568 192.336L286.487 182.888C305.193 232.377 308.58 284.754 271.498 339.522L271.502 339.525ZM106.337 13.7897C121.479 26.0745 129.928 38.7191 131.545 40.738C131.794 36.1651 133.988 14.4229 135.505 0.960696C143.712 10.4194 162.754 32.3777 169.041 39.5365C174.666 31.0133 193.66 3.34214 193.66 3.34214C193.66 3.34214 204.939 39.3755 206.94 45.2689C212.13 42.2035 242.246 23.1531 250.002 18.3721C247.108 33.201 242.904 54.3881 242.417 57.6121C243.997 56.3832 256.203 46.5694 274.192 39.3399C264.365 50.0581 256.658 66.4179 251.582 79.8612C237.918 71.9108 222.942 65.5948 206.927 61.3036C176.159 53.0593 145.15 53.1952 116.459 60.3441C115.495 45.7833 112.83 27.2786 106.337 13.7897Z" fill="white"/>
</svg>
